<?xml version="1.0" encoding="UTF-8" standalone="no"?>
<!-- Created with Inkscape (http://www.inkscape.org/) -->

<svg
   version="1.1"
   viewBox="0 0 86.332 118.16"
   id="svg6071"
   xmlns="http://www.w3.org/2000/svg"
   xmlns:svg="http://www.w3.org/2000/svg"
   class="CVLogo">>
  <defs
     id="defs6075" />
  <g
     transform="translate(-63.407 -68.958)"
     id="g6069">
    <g
       fill="#fff"
       stroke="#fff"
       id="g6067">
      <path
         d="m63.407 89.409h86.332v24.532c0 3.5145-8.2515 6.5634-8.2515 6.5634-10.207-9.0517-20.934-15.135-35.328-15.258-14.243-0.0394-23.394 4.3738-35.894 15.312 0 0-6.8594-3.5476-6.8594-6.7572v-24.393z"
         stroke-dasharray="0, 0.659097"
         stroke-dashoffset=".59918"
         stroke-width=".059918"
         style="paint-order:stroke fill markers"
         id="path6061" />
      <rect
         x="63.407"
         y="68.958"
         width="86.332"
         height="13.631"
         rx="0"
         stroke-dasharray="0, 0.873125"
         stroke-dashoffset=".79375"
         stroke-width=".079375"
         style="paint-order:stroke fill markers"
         id="rect6063" />
      <path
         transform="scale(.26458)"
         d="m401.79 432.34a137.44 137.44 0 0 0-137.44 137.44 137.44 137.44 0 0 0 137.44 137.44 137.44 137.44 0 0 0 137.44-137.44 137.44 137.44 0 0 0-137.44-137.44zm-0.65625 15.855c0.21665-0.0177 0.43116-0.0164 0.64258 4e-3 13 1.2483 37.619 76.771 37.619 76.771s76.616-2.1225 84.568 12.533c6.8294 12.586-61.389 59.502-61.389 59.502s24.561 74.489 14.215 84.303c-10.932 10.369-75.561-39.998-75.561-39.998 0 0-62.637 47.632-75.785 39.57-13.758-8.4359 14.691-84.223 14.691-84.223 0 0-65.301-45.511-61.051-59.848 4.7191-15.916 84.639-12.055 84.639-12.055s23.761-75.442 37.41-76.561z"
         stroke-dasharray="0, 2.81404"
         stroke-dashoffset="2.5582"
         stroke-width=".25582"
         style="paint-order:stroke fill markers"
         id="path6065" />
    </g>
  </g>
</svg>
