<?xml version="1.0" encoding="UTF-8" standalone="no"?>
<!-- Created with Inkscape (http://www.inkscape.org/) -->

<svg
   version="1.1"
   viewBox="0 0 148.74 95.846"
   id="svg4530"
   xmlns="http://www.w3.org/2000/svg"
   xmlns:svg="http://www.w3.org/2000/svg"
   class="CVLogo">>
  <defs
     id="defs4534" />
  <g
     transform="translate(-38.401 -101.2)"
     id="g4528">
    <g
       transform="translate(9.9136 -2.059)"
       fill="#fff"
       stroke="#fff"
       id="g4526">
      <path
         transform="scale(.26458)"
         d="m261.24 390.26c-17.105-0.0315-42.904 28.15-42.904 28.15h-35.729c-41.516 0-74.938 33.421-74.938 74.938v184.22c0 41.516 33.421 74.939 74.938 74.939h412.28c41.516 0 74.939-33.423 74.939-74.939v-184.22c0-41.516-33.424-74.797-74.939-74.938l-162.36-0.55273s-22.495-27.092-38.059-27.047c-72.086 0.20992-95.065-0.48048-133.23-0.55078zm61.545 46.885a147.15 147.15 0 0 1 147.14 147.14 147.15 147.15 0 0 1-147.14 147.15 147.15 147.15 0 0 1-147.15-147.15 147.15 147.15 0 0 1 147.15-147.14zm205.3 35.127h88.209c10.595 0 19.125 8.5298 19.125 19.125s-8.5298 19.125-19.125 19.125h-88.209c-10.595 0-19.125-8.5298-19.125-19.125s8.5298-19.125 19.125-19.125z"
         stroke-dasharray="0, 3.50053"
         stroke-dashoffset="3.1823"
         stroke-width=".31823"
         style="paint-order:stroke fill markers"
         id="path4522" />
      <path
         transform="scale(.26458)"
         d="m325.11 462.56a123.09 123.09 0 0 0-123.09 123.09 123.09 123.09 0 0 0 123.09 123.09 123.09 123.09 0 0 0 123.09-123.09 123.09 123.09 0 0 0-123.09-123.09zm0 10.143a112.05 112.05 0 0 1 112.05 112.05 112.05 112.05 0 0 1-112.05 112.05 112.05 112.05 0 0 1-112.05-112.05 112.05 112.05 0 0 1 112.05-112.05z"
         stroke-dasharray="0, 2.66631"
         stroke-dashoffset="2.4239"
         stroke-width=".24239"
         style="paint-order:stroke fill markers"
         id="path4524" />
    </g>
  </g>
</svg>
