<?php 
?>
<svg
   viewBox="0 0 177.73438 198.87018"
   version="1.1"
   id="svg5"
   onclick="toggle()">
  <sodipodi:namedview
     id="namedview864"
     pagecolor="#ffffff"
     bordercolor="#666666"
     borderopacity="1.0"
     inkscape:pageshadow="2"
     inkscape:pageopacity="0.0"
     inkscape:pagecheckerboard="0"
     showgrid="false"
     fit-margin-top="0"
     fit-margin-left="0"
     fit-margin-right="0"
     fit-margin-bottom="0"
     inkscape:zoom="3.5147519"
     inkscape:cx="75.823275"
     inkscape:cy="97.730939"
     inkscape:window-width="1920"
     inkscape:window-height="1017"
     inkscape:window-x="-8"
     inkscape:window-y="-8"
     inkscape:window-maximized="1"
     inkscape:current-layer="svg5" />
  <defs
     id="defs2" />
  <g
     id="g4555">
    <path
       id="path26451"
       style="color:#000000;fill:#02ff9a;stroke-width:2.64583;-inkscape-stroke:none"
       d="M 88.867188,0 A 88.867119,88.867119 0 0 0 0,88.867188 88.867119,88.867119 0 0 0 88.867188,177.73438 88.867119,88.867119 0 0 0 112.42188,174.33789 L 101.75586,163.43164 A 75.770911,75.770911 0 0 1 88.867188,164.63867 75.770911,75.770911 0 0 1 13.095703,88.867188 75.770911,75.770911 0 0 1 88.867188,13.097656 75.770911,75.770911 0 0 1 164.63672,88.867188 75.770911,75.770911 0 0 1 131.3457,151.39648 l 9.22266,9.43164 A 88.867119,88.867119 0 0 0 177.73438,88.867188 88.867119,88.867119 0 0 0 88.867188,0 Z" />
    <path
       style="color:#000000;fill:#02ff9a;stroke-width:3.08293;-inkscape-stroke:none"
       d="m 99.480149,22.080867 c -1.8075,0 -3.614696,0.692396 -4.9997,2.077392 L 36.872596,81.766111 c -2.769992,2.769992 -2.769992,7.229915 0,9.999906 l 8.150407,8.150403 96.876257,96.87626 c 2.76999,2.76999 7.23043,2.76999 10.00042,0 l 4.47777,-4.47777 c 2.76999,-2.76999 2.76999,-7.23043 0,-10.00042 l -51.04392,-51.04391 28.22154,-28.22154 c 2.76999,-2.76999 2.76999,-7.229902 0,-9.999897 l -8.31422,-8.314737 c -2.77,-2.769992 -7.22992,-2.769992 -9.99991,0 L 87.018889,112.95645 64.500885,90.438449 112.63076,42.308572 c 2.77,-2.769992 2.77,-7.229914 0,-9.999906 l -8.1504,-8.150407 c -1.385,-1.384996 -3.19272,-2.077392 -5.000211,-2.077392 z"
       id="path1124" />
  </g>
</svg>
