<?xml version="1.0" encoding="UTF-8" standalone="no"?>
<svg
   viewBox="0 0 177.73438 199.43921"
   version="1.1"
   id="svg5"
   onclick="toggle()"
   sodipodi:docname="logo.svg"
   inkscape:version="1.1.1 (3bf5ae0d25, 2021-09-20)"
   xmlns:inkscape="http://www.inkscape.org/namespaces/inkscape"
   xmlns:sodipodi="http://sodipodi.sourceforge.net/DTD/sodipodi-0.dtd"
   xmlns="http://www.w3.org/2000/svg"
   xmlns:svg="http://www.w3.org/2000/svg">
  <sodipodi:namedview
     id="namedview864"
     pagecolor="#ffffff"
     bordercolor="#666666"
     borderopacity="1.0"
     inkscape:pageshadow="2"
     inkscape:pageopacity="0.0"
     inkscape:pagecheckerboard="0"
     showgrid="false"
     fit-margin-top="0"
     fit-margin-left="0"
     fit-margin-right="0"
     fit-margin-bottom="0"
     inkscape:zoom="3.5147519"
     inkscape:cx="88.626455"
     inkscape:cy="100.8606"
     inkscape:window-width="1920"
     inkscape:window-height="1017"
     inkscape:window-x="-8"
     inkscape:window-y="-8"
     inkscape:window-maximized="1"
     inkscape:current-layer="svg5" />
  <defs
     id="defs2" />
  <g
     id="g1318"
     transform="translate(-1.3242188,-1.3222656)">
    <path
       id="path26451"
       style="color:#000000;fill:#02ff9a;stroke-width:2.64583;-inkscape-stroke:none"
       d="M 90.191406,1.3222656 A 88.867119,88.867119 0 0 0 1.3242188,90.189453 88.867119,88.867119 0 0 0 90.191406,179.05664 88.867119,88.867119 0 0 0 116.16992,175.10547 L 105.45117,164.38672 A 75.770911,75.770911 0 0 1 90.191406,165.96094 75.770911,75.770911 0 0 1 14.419922,90.189453 75.770911,75.770911 0 0 1 90.191406,14.419922 75.770911,75.770911 0 0 1 165.96094,90.189453 75.770911,75.770911 0 0 1 130.30273,154.44531 l 9.4043,9.4043 A 88.867119,88.867119 0 0 0 179.05859,90.189453 88.867119,88.867119 0 0 0 90.191406,1.3222656 Z" />
    <path
       style="color:#000000;fill:#02ff9a;stroke-width:3.08293;-inkscape-stroke:none"
       d="m 100.51146,23.972163 c -1.807501,0 -3.614697,0.692396 -4.999701,2.077392 L 37.903906,83.657407 c -2.769992,2.769992 -2.769992,7.229915 0,9.999906 l 8.150407,8.150407 96.876257,96.87626 c 2.76999,2.76999 7.23043,2.76999 10.00042,0 l 4.47777,-4.47777 c 2.76999,-2.76999 2.76999,-7.23043 0,-10.00042 l -51.04392,-51.04391 28.22154,-28.22154 c 2.76999,-2.76999 2.76999,-7.229906 0,-9.999901 l -8.31422,-8.314737 c -2.77,-2.769992 -7.22992,-2.769992 -9.99991,0 L 88.050199,114.84775 65.532195,92.329745 113.66207,44.199868 c 2.77,-2.769992 2.77,-7.229914 0,-9.999906 l -8.1504,-8.150407 c -1.385,-1.384996 -3.19272,-2.077392 -5.00021,-2.077392 z"
       id="path1124" />
  </g>
</svg>
