
<svg version="1.1" viewBox="0 0 180.38 204.57" id="svg12" xmlns="http://www.w3.org/2000/svg">
   <defs id="defs16" />
   <g transform="translate(-14.018 -40.959)" id="g10">
      <path transform="scale(.26458)" d="m393.86 159.81a335.88 335.88 0 0 0-335.88 335.88 335.88 335.88 0 0 0 335.88 335.88 335.88 335.88 0 0 0 335.88-335.88 335.88 335.88 0 0 0-335.88-335.88zm0 49.496a286.38 286.38 0 0 1 286.38 286.38 286.38 286.38 0 0 1-286.38 286.38 286.38 286.38 0 0 1-286.38-286.38 286.38 286.38 0 0 1 286.38-286.38z" color="#000000" fill="#fff" stroke-width="10" style="-inkscape-stroke:none" id="path2" />
      <path d="m104.21 40.959c-49.795 0-90.191 40.395-90.191 90.189 0 49.795 40.397 90.191 90.191 90.191 49.795 0 90.189-40.397 90.189-90.191 0-49.795-40.395-90.189-90.189-90.189zm0 2.6465c48.365 0 87.543 39.178 87.543 87.543 0 48.365-39.178 87.545-87.543 87.545-48.365 0-87.545-39.18-87.545-87.545 1e-6 -48.365 39.18-87.543 87.545-87.543z" color="#000000" style="-inkscape-stroke:none" id="path4" />
      <path d="m115.65 67.207c-1.8075 0-3.6147 0.6924-4.9997 2.0774l-57.608 57.608c-2.77 2.77-2.77 7.2299 0 9.9999l105.03 105.03c2.77 2.77 7.2304 2.77 10 0l4.4778-4.4778c2.77-2.77 2.77-7.2304 0-10l-51.044-51.044 28.222-28.222c2.77-2.77 2.77-7.2299 0-9.9999l-8.3142-8.3147c-2.77-2.77-7.2299-2.77-9.9999 0l-28.222 28.222-22.518-22.518 48.13-48.13c2.77-2.77 2.77-7.2299 0-9.9999l-8.1504-8.1504c-1.385-1.385-3.1927-2.0774-5.0002-2.0774z" color="#000000" fill="#fff" stroke-width="3.0829" style="-inkscape-stroke:none" id="path6" />
      <path d="m115.65 65.666c-2.2012 0-4.4121 0.8516-6.0896 2.529l-57.608 57.608c-3.355 3.355-3.355 8.8246 0 12.18l105.03 105.03c3.355 3.355 8.8251 3.355 12.18 0l4.4778-4.4778c3.355-3.355 3.355-8.8251 0-12.18l-49.954-49.954 27.132-27.132c3.355-3.355 3.355-8.8246 0-12.18l-8.3142-8.3147c-3.355-3.355-8.8246-3.355-12.18 0l-27.132 27.132-20.338-20.338 47.04-47.04c3.355-3.355 3.355-8.8246 0-12.18l-8.1504-8.1504c-1.6776-1.6776-3.8889-2.529-6.0901-2.529zm0 3.083c1.4138 0 2.818 0.53333 3.9104 1.6257l8.1504 8.1504c2.185 2.185 2.185 5.6352 0 7.8202l-49.22 49.22 24.698 24.698 29.312-29.312c2.185-2.185 5.6352-2.185 7.8202 0l8.3142 8.3147c2.185 2.185 2.185 5.6352 0 7.8202l-29.311 29.311 52.134 52.134c2.1849 2.1849 2.1849 5.6358 0 7.8207l-4.4778 4.4778c-2.1849 2.1849-5.6358 2.1849-7.8207 0l-105.03-105.03c-2.185-2.185-2.185-5.6352 0-7.8202l57.608-57.608c1.0926-1.0925 2.496-1.6257 3.9098-1.6257z" color="#000000" stroke-width=".26458" style="-inkscape-stroke:none" id="path8" />
   </g>
</svg>