<svg viewBox="0 0 180.38086 204.56636" version="1.1" id="svg5" onclick="toggle()">
   <defs id="defs2">
      <linearGradient id="linearGradient17254">
         <stop style="stop-color:#ffffff;stop-opacity:1;" offset="0" id="stop17252" />
      </linearGradient>
   </defs>
   <g id="layer8" style="display:inline" transform="translate(-14.017578,-40.958984)">
      <path id="path26451" style="color:#000000;fill:#02ff9a;stroke-width:9.99999;-inkscape-stroke:none" d="m 393.85938,159.80664 a 335.87573,335.87573 0 0 0 -335.876958,335.875 335.87573,335.87573 0 0 0 335.876958,335.875 335.87573,335.87573 0 0 0 335.875,-335.875 335.87573,335.87573 0 0 0 -335.875,-335.875 z m 0,49.49609 A 286.37825,286.37825 0 0 1 680.23633,495.68164 286.37825,286.37825 0 0 1 393.85938,782.06055 286.37825,286.37825 0 0 1 107.48047,495.68164 286.37825,286.37825 0 0 1 393.85938,209.30273 Z" transform="scale(0.26458333)" />
      <path style="color:#000000;fill:#ffffff;-inkscape-stroke:none" d="m 104.20898,40.958984 c -49.794858,0 -90.191402,40.394592 -90.191402,90.189456 0,49.79486 40.396544,90.1914 90.191402,90.1914 49.79487,0 90.18946,-40.39654 90.18946,-90.1914 0,-49.794864 -40.39459,-90.189456 -90.18946,-90.189456 z m 0,2.646485 c 48.36495,0 87.54297,39.17802 87.54297,87.542971 0,48.36495 -39.17802,87.54492 -87.54297,87.54492 -48.364945,0 -87.544918,-39.17997 -87.544918,-87.54492 10e-7,-48.364951 39.179973,-87.542971 87.544918,-87.542971 z" id="path26453" />
   </g>
   <g id="layer7" style="display:inline" transform="translate(-14.017578,-40.958984)">
      <path id="rect24291" style="fill:#02ff9a;fill-opacity:1;stroke:#ffffff;stroke-width:11.652;stroke-linejoin:miter;stroke-miterlimit:4;stroke-dasharray:none;stroke-opacity:1;paint-order:normal" d="m 437.10352,254.01172 c -6.83148,0 -13.66186,2.61693 -18.89649,7.85156 L 200.47656,479.59375 c -10.46926,10.46926 -10.46926,27.32566 0,37.79492 l 30.80469,30.80469 366.14648,366.14648 c 10.46927,10.46927 27.32761,10.46927 37.79688,0 l 16.92383,-16.92382 c 10.46926,-10.46927 10.46926,-27.32761 0,-37.79688 L 459.22656,666.69727 565.89062,560.0332 c 10.46927,-10.46926 10.46927,-27.32565 0,-37.79492 L 534.4668,490.8125 c -10.46927,-10.46926 -27.32566,-10.46926 -37.79492,0 l -106.66602,106.66602 -85.10742,-85.10743 181.9082,-181.9082 c 10.46927,-10.46926 10.46927,-27.32566 0,-37.79492 l -30.80469,-30.80469 c -5.23463,-5.23463 -12.06696,-7.85156 -18.89843,-7.85156 z" transform="scale(0.26458333)" />
   </g>
</svg>