
<svg
   width="5.2539mm"
   height="312.82mm"
   version="1.1"
   viewBox="0 0 5.2539 312.82"
   id="svg4454"
   xmlns="http://www.w3.org/2000/svg"
   xmlns:svg="http://www.w3.org/2000/svg">
  <defs
     id="defs4458" />
  <g
     transform="translate(-44.463 5.5098)"
     id="g4452">
    <g
       fill="#fff"
       fill-rule="evenodd"
       id="g4450">
      <path
         d="m47.09 307c-1.2794 0-2.3177-1.0384-2.3177-2.3177 0-1.2794 1.0383-2.3177 2.3177-2.3177s2.3177 1.0383 2.3177 2.3177c0 1.2794-1.0383 2.3177-2.3177 2.3177z"
         color="#000000"
         stroke-width=".46355pt"
         style="-inkscape-stroke:none"
         id="path4318" />
      <path
         d="m47.09 302.06c-1.4466 0-2.627 1.1804-2.627 2.627s1.1804 2.627 2.627 2.627c1.4466 0 2.627-1.1804 2.627-2.627s-1.1804-2.627-2.627-2.627zm0 0.61719c1.1122 0 2.0098 0.89757 2.0098 2.0098s-0.89758 2.0078-2.0098 2.0078c-1.1122 0-2.0078-0.89563-2.0078-2.0078s0.89563-2.0098 2.0078-2.0098z"
         color="#000000"
         style="-inkscape-stroke:none"
         id="path4320" />
      <path
         d="m47.09 297.39c-1.2794 0-2.3177-1.0384-2.3177-2.3177 0-1.2794 1.0383-2.3177 2.3177-2.3177s2.3177 1.0383 2.3177 2.3177c0 1.2794-1.0383 2.3177-2.3177 2.3177z"
         color="#000000"
         stroke-width=".46355pt"
         style="-inkscape-stroke:none"
         id="path4322" />
      <path
         d="m47.09 292.45c-1.4466 0-2.627 1.1804-2.627 2.627 0 1.4466 1.1804 2.625 2.627 2.625 1.4466 0 2.627-1.1784 2.627-2.625 0-1.4466-1.1804-2.627-2.627-2.627zm0 0.61719c1.1122 0 2.0098 0.89757 2.0098 2.0098 0 1.1122-0.89758 2.0078-2.0098 2.0078-1.1122 0-2.0078-0.89563-2.0078-2.0078 0-1.1122 0.89563-2.0098 2.0078-2.0098z"
         color="#000000"
         style="-inkscape-stroke:none"
         id="path4324" />
      <path
         d="m47.09 287.78c-1.2794 0-2.3177-1.0384-2.3177-2.3177 0-1.2794 1.0383-2.3177 2.3177-2.3177s2.3177 1.0383 2.3177 2.3177c0 1.2794-1.0383 2.3177-2.3177 2.3177z"
         color="#000000"
         stroke-width=".46355pt"
         style="-inkscape-stroke:none"
         id="path4326" />
      <path
         d="m47.09 282.83c-1.4466 0-2.627 1.1804-2.627 2.627s1.1804 2.627 2.627 2.627c1.4466 0 2.627-1.1804 2.627-2.627s-1.1804-2.627-2.627-2.627zm0 0.61914c1.1122 0 2.0098 0.89562 2.0098 2.0078s-0.89758 2.0098-2.0098 2.0098c-1.1122 0-2.0078-0.89758-2.0078-2.0098s0.89563-2.0078 2.0078-2.0078z"
         color="#000000"
         style="-inkscape-stroke:none"
         id="path4328" />
      <path
         d="m47.09 278.17c-1.2794 0-2.3177-1.0384-2.3177-2.3177 0-1.2794 1.0383-2.3177 2.3177-2.3177s2.3177 1.0383 2.3177 2.3177c0 1.2794-1.0383 2.3177-2.3177 2.3177z"
         color="#000000"
         stroke-width=".46355pt"
         style="-inkscape-stroke:none"
         id="path4330" />
      <path
         d="m47.09 273.22c-1.4466 0-2.627 1.1804-2.627 2.627 0 1.4466 1.1804 2.627 2.627 2.627 1.4466 0 2.627-1.1804 2.627-2.627 0-1.4466-1.1804-2.627-2.627-2.627zm0 0.61914c1.1122 0 2.0098 0.89562 2.0098 2.0078 0 1.1122-0.89758 2.0098-2.0098 2.0098-1.1122 0-2.0078-0.89758-2.0078-2.0098 0-1.1122 0.89563-2.0078 2.0078-2.0078z"
         color="#000000"
         style="-inkscape-stroke:none"
         id="path4332" />
      <path
         d="m47.09 268.55c-1.2794 0-2.3177-1.0384-2.3177-2.3177 0-1.2794 1.0383-2.3177 2.3177-2.3177s2.3177 1.0383 2.3177 2.3177c0 1.2794-1.0383 2.3177-2.3177 2.3177z"
         color="#000000"
         stroke-width=".46355pt"
         style="-inkscape-stroke:none"
         id="path4334" />
      <path
         d="m47.09 263.61c-1.4466 0-2.627 1.1804-2.627 2.627 0 1.4466 1.1804 2.627 2.627 2.627 1.4466 0 2.627-1.1804 2.627-2.627 0-1.4466-1.1804-2.627-2.627-2.627zm0 0.61915c1.1122 0 2.0098 0.89561 2.0098 2.0078 0 1.1122-0.89758 2.0098-2.0098 2.0098-1.1122 0-2.0078-0.89758-2.0078-2.0098 0-1.1122 0.89563-2.0078 2.0078-2.0078z"
         color="#000000"
         style="-inkscape-stroke:none"
         id="path4336" />
      <path
         d="m47.09 258.94c-1.2794 0-2.3177-1.0384-2.3177-2.3177 0-1.2794 1.0383-2.3177 2.3177-2.3177s2.3177 1.0383 2.3177 2.3177c0 1.2794-1.0383 2.3177-2.3177 2.3177z"
         color="#000000"
         stroke-width=".46355pt"
         style="-inkscape-stroke:none"
         id="path4338" />
      <path
         d="m47.09 254c-1.4466 0-2.627 1.1804-2.627 2.627 0 1.4466 1.1804 2.627 2.627 2.627 1.4466 0 2.627-1.1804 2.627-2.627 0-1.4466-1.1804-2.627-2.627-2.627zm0 0.61718c1.1122 0 2.0098 0.89758 2.0098 2.0098 0 1.1122-0.89758 2.0078-2.0098 2.0078-1.1122 0-2.0078-0.89563-2.0078-2.0078 0-1.1122 0.89563-2.0098 2.0078-2.0098z"
         color="#000000"
         style="-inkscape-stroke:none"
         id="path4340" />
      <path
         d="m47.09 249.33c-1.2794 0-2.3177-1.0384-2.3177-2.3177 0-1.2794 1.0383-2.3177 2.3177-2.3177s2.3177 1.0383 2.3177 2.3177c0 1.2794-1.0383 2.3177-2.3177 2.3177z"
         color="#000000"
         stroke-width=".46355pt"
         style="-inkscape-stroke:none"
         id="path4342" />
      <path
         d="m47.09 244.39c-1.4466 0-2.627 1.1804-2.627 2.627s1.1804 2.627 2.627 2.627c1.4466 0 2.627-1.1804 2.627-2.627s-1.1804-2.627-2.627-2.627zm0 0.61719c1.1122 0 2.0098 0.89757 2.0098 2.0098 0 1.1122-0.89758 2.0078-2.0098 2.0078-1.1122 0-2.0078-0.89563-2.0078-2.0078 0-1.1122 0.89563-2.0098 2.0078-2.0098z"
         color="#000000"
         style="-inkscape-stroke:none"
         id="path4344" />
      <path
         d="m47.09 239.72c-1.2794 0-2.3177-1.0384-2.3177-2.3177 0-1.2794 1.0383-2.3177 2.3177-2.3177s2.3177 1.0383 2.3177 2.3177c0 1.2794-1.0383 2.3177-2.3177 2.3177z"
         color="#000000"
         stroke-width=".46355pt"
         style="-inkscape-stroke:none"
         id="path4346" />
      <path
         d="m47.09 234.78c-1.4466 0-2.627 1.1804-2.627 2.627 0 1.4466 1.1804 2.627 2.627 2.627 1.4466 0 2.627-1.1804 2.627-2.627 0-1.4466-1.1804-2.627-2.627-2.627zm0 0.61914c1.1122 0 2.0098 0.89562 2.0098 2.0078 0 1.1122-0.89758 2.0098-2.0098 2.0098-1.1122 0-2.0078-0.89758-2.0078-2.0098 0-1.1122 0.89563-2.0078 2.0078-2.0078z"
         color="#000000"
         style="-inkscape-stroke:none"
         id="path4348" />
      <path
         d="m47.09 230.11c-1.2794 0-2.3177-1.0384-2.3177-2.3177 0-1.2794 1.0383-2.3177 2.3177-2.3177s2.3177 1.0383 2.3177 2.3177c0 1.2794-1.0383 2.3177-2.3177 2.3177z"
         color="#000000"
         stroke-width=".46355pt"
         style="-inkscape-stroke:none"
         id="path4350" />
      <path
         d="m47.09 225.17c-1.4466 0-2.627 1.1804-2.627 2.627s1.1804 2.625 2.627 2.625c1.4466 0 2.627-1.1784 2.627-2.625s-1.1804-2.627-2.627-2.627zm0 0.61719c1.1122 0 2.0098 0.89757 2.0098 2.0098s-0.89758 2.0078-2.0098 2.0078c-1.1122 0-2.0078-0.89563-2.0078-2.0078s0.89563-2.0098 2.0078-2.0098z"
         color="#000000"
         style="-inkscape-stroke:none"
         id="path4352" />
      <path
         d="m47.09 220.5c-1.2794 0-2.3177-1.0384-2.3177-2.3177 0-1.2794 1.0383-2.3177 2.3177-2.3177s2.3177 1.0383 2.3177 2.3177c0 1.2794-1.0383 2.3177-2.3177 2.3177z"
         color="#000000"
         stroke-width=".46355pt"
         style="-inkscape-stroke:none"
         id="path4354" />
      <path
         d="m47.09 215.55c-1.4466 0-2.627 1.1804-2.627 2.627s1.1804 2.627 2.627 2.627c1.4466 0 2.627-1.1804 2.627-2.627s-1.1804-2.627-2.627-2.627zm0 0.61718c1.1122 0 2.0098 0.89758 2.0098 2.0098 0 1.1122-0.89758 2.0078-2.0098 2.0078-1.1122 0-2.0078-0.89563-2.0078-2.0078 0-1.1122 0.89563-2.0098 2.0078-2.0098z"
         color="#000000"
         style="-inkscape-stroke:none"
         id="path4356" />
      <path
         d="m47.09 210.88c-1.2794 0-2.3177-1.0384-2.3177-2.3177 0-1.2794 1.0383-2.3177 2.3177-2.3177s2.3177 1.0383 2.3177 2.3177c0 1.2794-1.0383 2.3177-2.3177 2.3177z"
         color="#000000"
         stroke-width=".46355pt"
         style="-inkscape-stroke:none"
         id="path4358" />
      <path
         d="m47.09 205.94c-1.4466 0-2.627 1.1804-2.627 2.627 0 1.4466 1.1804 2.627 2.627 2.627 1.4466 0 2.627-1.1804 2.627-2.627 0-1.4466-1.1804-2.627-2.627-2.627zm0 0.61914c1.1122 0 2.0098 0.89562 2.0098 2.0078 0 1.1122-0.89758 2.0098-2.0098 2.0098-1.1122 0-2.0078-0.89758-2.0078-2.0098 0-1.1122 0.89563-2.0078 2.0078-2.0078z"
         color="#000000"
         style="-inkscape-stroke:none"
         id="path4360" />
      <path
         d="m47.09 201.28c-1.2794 0-2.3177-1.0384-2.3177-2.3177 0-1.2794 1.0383-2.3177 2.3177-2.3177s2.3177 1.0383 2.3177 2.3177c0 1.2794-1.0383 2.3177-2.3177 2.3177z"
         color="#000000"
         stroke-width=".46355pt"
         style="-inkscape-stroke:none"
         id="path4362" />
      <path
         d="m47.09 196.33c-1.4466 0-2.627 1.1804-2.627 2.627s1.1804 2.625 2.627 2.625c1.4466 0 2.627-1.1784 2.627-2.625s-1.1804-2.627-2.627-2.627zm0 0.61719c1.1122 0 2.0098 0.89757 2.0098 2.0098s-0.89758 2.0078-2.0098 2.0078c-1.1122 0-2.0078-0.89563-2.0078-2.0078s0.89563-2.0098 2.0078-2.0098z"
         color="#000000"
         style="-inkscape-stroke:none"
         id="path4364" />
      <path
         d="m47.09 191.66c-1.2794 0-2.3177-1.0384-2.3177-2.3177 0-1.2794 1.0383-2.3177 2.3177-2.3177s2.3177 1.0383 2.3177 2.3177c0 1.2794-1.0383 2.3177-2.3177 2.3177z"
         color="#000000"
         stroke-width=".46355pt"
         style="-inkscape-stroke:none"
         id="path4366" />
      <path
         d="m47.09 186.72c-1.4466 0-2.627 1.1804-2.627 2.627 0 1.4466 1.1804 2.627 2.627 2.627 1.4466 0 2.627-1.1804 2.627-2.627 0-1.4466-1.1804-2.627-2.627-2.627zm0 0.61718c1.1122 0 2.0098 0.89758 2.0098 2.0098 0 1.1122-0.89758 2.0078-2.0098 2.0078-1.1122 0-2.0078-0.89563-2.0078-2.0078 0-1.1122 0.89563-2.0098 2.0078-2.0098z"
         color="#000000"
         style="-inkscape-stroke:none"
         id="path4368" />
      <path
         d="m47.09 182.05c-1.2794 0-2.3177-1.0384-2.3177-2.3177 0-1.2794 1.0383-2.3177 2.3177-2.3177s2.3177 1.0383 2.3177 2.3177c0 1.2794-1.0383 2.3177-2.3177 2.3177z"
         color="#000000"
         stroke-width=".46355pt"
         style="-inkscape-stroke:none"
         id="path4370" />
      <path
         d="m47.09 177.1c-1.4466 0-2.627 1.1804-2.627 2.627 0 1.4466 1.1804 2.627 2.627 2.627 1.4466 0 2.627-1.1804 2.627-2.627 0-1.4466-1.1804-2.627-2.627-2.627zm0 0.61914c1.1122 0 2.0098 0.89562 2.0098 2.0078 0 1.1122-0.89758 2.0098-2.0098 2.0098-1.1122 0-2.0078-0.89758-2.0078-2.0098 0-1.1122 0.89563-2.0078 2.0078-2.0078z"
         color="#000000"
         style="-inkscape-stroke:none"
         id="path4372" />
      <path
         d="m47.09 172.44c-1.2794 0-2.3177-1.0384-2.3177-2.3177 0-1.2794 1.0383-2.3177 2.3177-2.3177s2.3177 1.0383 2.3177 2.3177c0 1.2794-1.0383 2.3177-2.3177 2.3177z"
         color="#000000"
         stroke-width=".46355pt"
         style="-inkscape-stroke:none"
         id="path4374" />
      <path
         d="m47.09 167.49c-1.4466 0-2.627 1.1804-2.627 2.627s1.1804 2.625 2.627 2.625c1.4466 0 2.627-1.1784 2.627-2.625s-1.1804-2.627-2.627-2.627zm0 0.61719c1.1122 0 2.0098 0.89757 2.0098 2.0098s-0.89758 2.0078-2.0098 2.0078c-1.1122 0-2.0078-0.89563-2.0078-2.0078s0.89563-2.0098 2.0078-2.0098z"
         color="#000000"
         style="-inkscape-stroke:none"
         id="path4376" />
      <path
         d="m47.09 162.83c-1.2794 0-2.3177-1.0384-2.3177-2.3177 0-1.2794 1.0383-2.3177 2.3177-2.3177s2.3177 1.0383 2.3177 2.3177c0 1.2794-1.0383 2.3177-2.3177 2.3177z"
         color="#000000"
         stroke-width=".46355pt"
         style="-inkscape-stroke:none"
         id="path4378" />
      <path
         d="m47.09 157.88c-1.4466 0-2.627 1.1804-2.627 2.627s1.1804 2.627 2.627 2.627c1.4466 0 2.627-1.1804 2.627-2.627s-1.1804-2.627-2.627-2.627zm0 0.61914c1.1122 0 2.0098 0.89562 2.0098 2.0078s-0.89758 2.0098-2.0098 2.0098c-1.1122 0-2.0078-0.89758-2.0078-2.0098s0.89563-2.0078 2.0078-2.0078z"
         color="#000000"
         style="-inkscape-stroke:none"
         id="path4380" />
      <path
         d="m47.09 153.22c-1.2794 0-2.3177-1.0384-2.3177-2.3177 0-1.2794 1.0383-2.3177 2.3177-2.3177s2.3177 1.0383 2.3177 2.3177c0 1.2794-1.0383 2.3177-2.3177 2.3177z"
         color="#000000"
         stroke-width=".46355pt"
         style="-inkscape-stroke:none"
         id="path4382" />
      <path
         d="m47.09 148.27c-1.4466 0-2.627 1.1804-2.627 2.627s1.1804 2.627 2.627 2.627c1.4466 0 2.627-1.1804 2.627-2.627s-1.1804-2.627-2.627-2.627zm0 0.61718c1.1122 0 2.0098 0.89758 2.0098 2.0098 0 1.1122-0.89758 2.0078-2.0098 2.0078-1.1122 0-2.0078-0.89563-2.0078-2.0078 0-1.1122 0.89563-2.0098 2.0078-2.0098z"
         color="#000000"
         style="-inkscape-stroke:none"
         id="path4384" />
      <path
         d="m47.09 143.61c-1.2794 0-2.3177-1.0384-2.3177-2.3177 0-1.2794 1.0383-2.3177 2.3177-2.3177s2.3177 1.0383 2.3177 2.3177c0 1.2794-1.0383 2.3177-2.3177 2.3177z"
         color="#000000"
         stroke-width=".46355pt"
         style="-inkscape-stroke:none"
         id="path4386" />
      <path
         d="m47.09 138.66c-1.4466 0-2.627 1.1804-2.627 2.627s1.1804 2.627 2.627 2.627c1.4466 0 2.627-1.1804 2.627-2.627s-1.1804-2.627-2.627-2.627zm0 0.61719c1.1122 0 2.0098 0.89757 2.0098 2.0098s-0.89758 2.0078-2.0098 2.0078c-1.1122 0-2.0078-0.89562-2.0078-2.0078s0.89563-2.0098 2.0078-2.0098z"
         color="#000000"
         style="-inkscape-stroke:none"
         id="path4388" />
      <path
         d="m47.09 133.99c-1.2794 0-2.3177-1.0384-2.3177-2.3177 0-1.2794 1.0383-2.3177 2.3177-2.3177s2.3177 1.0383 2.3177 2.3177c0 1.2794-1.0383 2.3177-2.3177 2.3177z"
         color="#000000"
         stroke-width=".46355pt"
         style="-inkscape-stroke:none"
         id="path4390" />
      <path
         d="m47.09 129.05c-1.4466 0-2.627 1.1784-2.627 2.625s1.1804 2.627 2.627 2.627c1.4466 0 2.627-1.1804 2.627-2.627s-1.1804-2.625-2.627-2.625zm0 0.61719c1.1122 0 2.0098 0.89562 2.0098 2.0078 0 1.1122-0.89758 2.0098-2.0098 2.0098-1.1122 0-2.0078-0.89759-2.0078-2.0098 0-1.1122 0.89563-2.0078 2.0078-2.0078z"
         color="#000000"
         style="-inkscape-stroke:none"
         id="path4392" />
      <path
         d="m47.09 124.38c-1.2794 0-2.3177-1.0384-2.3177-2.3177 0-1.2794 1.0383-2.3177 2.3177-2.3177s2.3177 1.0383 2.3177 2.3177c0 1.2794-1.0383 2.3177-2.3177 2.3177z"
         color="#000000"
         stroke-width=".46355pt"
         style="-inkscape-stroke:none"
         id="path4394" />
      <path
         d="m47.09 119.44c-1.4466 0-2.627 1.1804-2.627 2.627s1.1804 2.627 2.627 2.627c1.4466 0 2.627-1.1804 2.627-2.627s-1.1804-2.627-2.627-2.627zm0 0.61914c1.1122 0 2.0098 0.89562 2.0098 2.0078s-0.89758 2.0098-2.0098 2.0098c-1.1122 0-2.0078-0.89758-2.0078-2.0098s0.89563-2.0078 2.0078-2.0078z"
         color="#000000"
         style="-inkscape-stroke:none"
         id="path4396" />
      <path
         d="m47.09 114.77c-1.2794 0-2.3177-1.0384-2.3177-2.3177 0-1.2794 1.0383-2.3177 2.3177-2.3177s2.3177 1.0383 2.3177 2.3177c0 1.2794-1.0383 2.3177-2.3177 2.3177z"
         color="#000000"
         stroke-width=".46355pt"
         style="-inkscape-stroke:none"
         id="path4398" />
      <path
         d="m47.09 109.83c-1.4466 0-2.627 1.1804-2.627 2.627s1.1804 2.627 2.627 2.627c1.4466 0 2.627-1.1804 2.627-2.627s-1.1804-2.627-2.627-2.627zm0 0.61719c1.1122 0 2.0098 0.89757 2.0098 2.0098 0 1.1122-0.89758 2.0078-2.0098 2.0078-1.1122 0-2.0078-0.89563-2.0078-2.0078 0-1.1122 0.89563-2.0098 2.0078-2.0098z"
         color="#000000"
         style="-inkscape-stroke:none"
         id="path4400" />
      <path
         d="m47.09 105.16c-1.2794 0-2.3177-1.0384-2.3177-2.3177 0-1.2794 1.0383-2.3177 2.3177-2.3177s2.3177 1.0383 2.3177 2.3177c0 1.2794-1.0383 2.3177-2.3177 2.3177z"
         color="#000000"
         stroke-width=".46355pt"
         style="-inkscape-stroke:none"
         id="path4402" />
      <path
         d="m47.09 100.21c-1.4466 0-2.627 1.1804-2.627 2.627 0 1.4466 1.1804 2.627 2.627 2.627 1.4466 0 2.627-1.1804 2.627-2.627 0-1.4466-1.1804-2.627-2.627-2.627zm0 0.61914c1.1122 0 2.0098 0.89562 2.0098 2.0078 0 1.1122-0.89758 2.0078-2.0098 2.0078-1.1122 0-2.0078-0.89563-2.0078-2.0078 0-1.1122 0.89563-2.0078 2.0078-2.0078z"
         color="#000000"
         style="-inkscape-stroke:none"
         id="path4404" />
      <path
         d="m47.09 95.548c-1.2794 0-2.3177-1.0383-2.3177-2.3177 0-1.2794 1.0383-2.3177 2.3177-2.3177s2.3177 1.0383 2.3177 2.3177c0 1.2794-1.0383 2.3177-2.3177 2.3177z"
         color="#000000"
         stroke-width=".46355pt"
         style="-inkscape-stroke:none"
         id="path4406" />
      <path
         d="m47.09 90.604c-1.4466 0-2.627 1.1804-2.627 2.627s1.1804 2.627 2.627 2.627 2.627-1.1804 2.627-2.627-1.1804-2.627-2.627-2.627zm0 0.61719c1.1122 0 2.0098 0.89758 2.0098 2.0098 0 1.1122-0.89758 2.0078-2.0098 2.0078s-2.0078-0.89563-2.0078-2.0078c0-1.1122 0.89563-2.0098 2.0078-2.0098z"
         color="#000000"
         style="-inkscape-stroke:none"
         id="path4408" />
      <path
         d="m47.09 85.936c-1.2794 0-2.3177-1.0383-2.3177-2.3177 0-1.2794 1.0383-2.3177 2.3177-2.3177s2.3177 1.0383 2.3177 2.3177c0 1.2794-1.0383 2.3177-2.3177 2.3177z"
         color="#000000"
         stroke-width=".46355pt"
         style="-inkscape-stroke:none"
         id="path4410" />
      <path
         d="m47.09 80.992c-1.4466 0-2.627 1.1804-2.627 2.627s1.1804 2.627 2.627 2.627 2.627-1.1804 2.627-2.627-1.1804-2.627-2.627-2.627zm0 0.61719c1.1122 0 2.0098 0.89758 2.0098 2.0098 0 1.1122-0.89758 2.0078-2.0098 2.0078s-2.0078-0.89563-2.0078-2.0078c0-1.1122 0.89563-2.0098 2.0078-2.0098z"
         color="#000000"
         style="-inkscape-stroke:none"
         id="path4412" />
      <path
         d="m47.09 76.325c-1.2794 0-2.3177-1.0383-2.3177-2.3177 0-1.2794 1.0383-2.3177 2.3177-2.3177s2.3177 1.0383 2.3177 2.3177c0 1.2794-1.0383 2.3177-2.3177 2.3177z"
         color="#000000"
         stroke-width=".46355pt"
         style="-inkscape-stroke:none"
         id="path4414" />
      <path
         d="m47.09 71.381c-1.4466 0-2.627 1.1804-2.627 2.627 0 1.4466 1.1804 2.625 2.627 2.625s2.627-1.1784 2.627-2.625c0-1.4466-1.1804-2.627-2.627-2.627zm0 0.61719c1.1122 0 2.0098 0.89758 2.0098 2.0098 0 1.1122-0.89758 2.0078-2.0098 2.0078s-2.0078-0.89563-2.0078-2.0078c0-1.1122 0.89563-2.0098 2.0078-2.0098z"
         color="#000000"
         style="-inkscape-stroke:none"
         id="path4416" />
      <path
         d="m47.09 66.713c-1.2794 0-2.3177-1.0383-2.3177-2.3177 0-1.2794 1.0383-2.3177 2.3177-2.3177s2.3177 1.0383 2.3177 2.3177c0 1.2794-1.0383 2.3177-2.3177 2.3177z"
         color="#000000"
         stroke-width=".46355pt"
         style="-inkscape-stroke:none"
         id="path4418" />
      <path
         d="m47.09 61.768c-1.4466 0-2.627 1.1804-2.627 2.627 0 1.4466 1.1804 2.627 2.627 2.627s2.627-1.1804 2.627-2.627c0-1.4466-1.1804-2.627-2.627-2.627zm0 0.61914c1.1122 0 2.0098 0.89563 2.0098 2.0078 0 1.1122-0.89758 2.0098-2.0098 2.0098s-2.0078-0.89758-2.0078-2.0098c0-1.1122 0.89563-2.0078 2.0078-2.0078z"
         color="#000000"
         style="-inkscape-stroke:none"
         id="path4420" />
      <path
         d="m47.09 57.098c-1.2794 0-2.3177-1.0383-2.3177-2.3177 0-1.2794 1.0383-2.3177 2.3177-2.3177s2.3177 1.0383 2.3177 2.3177c0 1.2794-1.0383 2.3177-2.3177 2.3177z"
         color="#000000"
         stroke-width=".46355pt"
         style="-inkscape-stroke:none"
         id="path4422" />
      <path
         d="m47.09 52.154c-1.4466 0-2.627 1.1804-2.627 2.627 0 1.4466 1.1804 2.627 2.627 2.627s2.627-1.1804 2.627-2.627c0-1.4466-1.1804-2.627-2.627-2.627zm0 0.61719c1.1122 0 2.0098 0.89758 2.0098 2.0098 0 1.1122-0.89758 2.0078-2.0098 2.0078-1.1122 0-2.0078-0.89563-2.0078-2.0078 0-1.1122 0.89563-2.0098 2.0078-2.0098z"
         color="#000000"
         style="-inkscape-stroke:none"
         id="path4424" />
      <path
         d="m47.09 47.49c-1.2794 0-2.3177-1.0383-2.3177-2.3177 0-1.2794 1.0383-2.3177 2.3177-2.3177s2.3177 1.0383 2.3177 2.3177c0 1.2794-1.0383 2.3177-2.3177 2.3177z"
         color="#000000"
         stroke-width=".46355pt"
         style="-inkscape-stroke:none"
         id="path4426" />
      <path
         d="m47.09 42.545c-1.4466 0-2.627 1.1804-2.627 2.627 0 1.4466 1.1804 2.627 2.627 2.627s2.627-1.1804 2.627-2.627c0-1.4466-1.1804-2.627-2.627-2.627zm0 0.61914c1.1122 0 2.0098 0.89563 2.0098 2.0078 0 1.1122-0.89758 2.0078-2.0098 2.0078-1.1122 0-2.0078-0.89563-2.0078-2.0078 0-1.1122 0.89563-2.0078 2.0078-2.0078z"
         color="#000000"
         style="-inkscape-stroke:none"
         id="path4428" />
      <path
         d="m47.09 37.878c-1.2794 0-2.3177-1.0383-2.3177-2.3177 0-1.2794 1.0383-2.3177 2.3177-2.3177s2.3177 1.0383 2.3177 2.3177c0 1.2794-1.0383 2.3177-2.3177 2.3177z"
         color="#000000"
         stroke-width=".46355pt"
         style="-inkscape-stroke:none"
         id="path4430" />
      <path
         d="m47.09 32.934c-1.4466 0-2.627 1.1804-2.627 2.627s1.1804 2.627 2.627 2.627 2.627-1.1804 2.627-2.627-1.1804-2.627-2.627-2.627zm0 0.61719c1.1122 0 2.0098 0.89758 2.0098 2.0098 0 1.1122-0.89758 2.0078-2.0098 2.0078s-2.0078-0.89563-2.0078-2.0078c0-1.1122 0.89563-2.0098 2.0078-2.0098z"
         color="#000000"
         style="-inkscape-stroke:none"
         id="path4432" />
      <path
         d="m47.09 28.266c-1.2794 0-2.3177-1.0383-2.3177-2.3177 0-1.2794 1.0383-2.3177 2.3177-2.3177s2.3177 1.0383 2.3177 2.3177c0 1.2794-1.0383 2.3177-2.3177 2.3177z"
         color="#000000"
         stroke-width=".46355pt"
         style="-inkscape-stroke:none"
         id="path4434" />
      <path
         d="m47.09 23.322c-1.4466 0-2.627 1.1804-2.627 2.627s1.1804 2.627 2.627 2.627 2.627-1.1804 2.627-2.627-1.1804-2.627-2.627-2.627zm0 0.61719c1.1122 0 2.0098 0.89758 2.0098 2.0098 0 1.1122-0.89758 2.0078-2.0098 2.0078s-2.0078-0.89563-2.0078-2.0078c0-1.1122 0.89563-2.0098 2.0078-2.0098z"
         color="#000000"
         style="-inkscape-stroke:none"
         id="path4436" />
      <path
         d="m47.09 18.655c-1.2794 0-2.3177-1.0383-2.3177-2.3177 0-1.2794 1.0383-2.3177 2.3177-2.3177s2.3177 1.0383 2.3177 2.3177c0 1.2794-1.0383 2.3177-2.3177 2.3177z"
         color="#000000"
         stroke-width=".46355pt"
         style="-inkscape-stroke:none"
         id="path4438" />
      <path
         d="m47.09 13.711c-1.4466 0-2.627 1.1804-2.627 2.627s1.1804 2.625 2.627 2.625 2.627-1.1784 2.627-2.625-1.1804-2.627-2.627-2.627zm0 0.61719c1.1122 0 2.0098 0.89758 2.0098 2.0098 0 1.1122-0.89758 2.0078-2.0098 2.0078s-2.0078-0.89563-2.0078-2.0078c0-1.1122 0.89563-2.0098 2.0078-2.0098z"
         color="#000000"
         style="-inkscape-stroke:none"
         id="path4440" />
      <path
         d="m47.09 9.0462c-1.2794 0-2.3177-1.0383-2.3177-2.3177s1.0383-2.3177 2.3177-2.3177 2.3177 1.0383 2.3177 2.3177-1.0383 2.3177-2.3177 2.3177z"
         color="#000000"
         stroke-width=".46355pt"
         style="-inkscape-stroke:none"
         id="path4442" />
      <path
         d="m47.09 4.1016c-1.4466 0-2.627 1.1804-2.627 2.627 0 1.4466 1.1804 2.627 2.627 2.627 1.4466 0 2.627-1.1804 2.627-2.627 0-1.4466-1.1804-2.627-2.627-2.627zm0 0.61914c1.1122 0 2.0098 0.89563 2.0098 2.0078s-0.89758 2.0078-2.0098 2.0078-2.0078-0.89563-2.0078-2.0078 0.89563-2.0078 2.0078-2.0078z"
         color="#000000"
         style="-inkscape-stroke:none"
         id="path4444" />
      <path
         d="m47.09-0.56514c-1.2794 0-2.3177-1.0383-2.3177-2.3177s1.0383-2.3177 2.3177-2.3177 2.3177 1.0383 2.3177 2.3177-1.0383 2.3177-2.3177 2.3177z"
         color="#000000"
         stroke-width=".46355pt"
         style="-inkscape-stroke:none"
         id="path4446" />
      <path
         d="m47.09-5.5098c-1.4466 0-2.627 1.1804-2.627 2.627s1.1804 2.627 2.627 2.627c1.4466 0 2.627-1.1804 2.627-2.627s-1.1804-2.627-2.627-2.627zm0 0.61914c1.1122 0 2.0098 0.89563 2.0098 2.0078s-0.89758 2.0078-2.0098 2.0078-2.0078-0.89563-2.0078-2.0078 0.89563-2.0078 2.0078-2.0078z"
         color="#000000"
         style="-inkscape-stroke:none"
         id="path4448" />
    </g>
  </g>
</svg>
